<svg id="svg" version="1.1" xmlns="http://www.w3.org/2000/svg" xmlns:xlink="http://www.w3.org/1999/xlink" width="400" height="400" viewBox="0, 0, 400,400"><g id="svgg"><path id="path0" d="M204.579 6.140 C 204.347 6.393,201.941 9.300,199.233 12.600 C 196.525 15.900,193.925 19.052,193.455 19.604 C 192.321 20.936,189.155 24.790,188.400 25.757 C 188.070 26.179,187.249 27.172,186.576 27.963 C 185.902 28.753,183.742 31.380,181.776 33.800 C 179.809 36.220,177.815 38.650,177.344 39.200 C 176.874 39.750,174.288 42.900,171.598 46.200 C 166.088 52.959,163.983 55.516,163.400 56.159 C 163.180 56.402,162.508 57.259,161.906 58.065 C 161.304 58.871,160.580 59.771,160.297 60.065 C 160.014 60.359,158.678 61.950,157.330 63.600 C 147.023 76.207,145.025 78.643,136.946 88.442 C 134.116 91.874,130.379 96.419,128.642 98.542 L 125.484 102.400 95.442 102.406 C 78.919 102.409,65.213 102.544,64.986 102.706 C 64.559 103.009,61.670 107.614,59.908 110.800 C 59.361 111.790,58.501 113.320,57.996 114.200 C 55.729 118.158,47.200 134.861,47.200 135.345 C 47.200 135.432,46.300 137.402,45.200 139.722 C 44.100 142.043,43.200 144.100,43.200 144.294 C 43.200 146.558,35.647 142.324,32.000 138.016 C 31.890 137.886,30.990 137.159,30.000 136.400 C 29.010 135.641,28.110 134.922,28.000 134.800 C 27.202 133.922,19.912 128.355,19.759 128.508 C 19.653 128.613,20.180 129.758,20.929 131.050 C 21.678 132.343,22.740 134.210,23.289 135.200 C 24.478 137.344,24.485 137.356,31.085 148.800 C 33.940 153.750,36.731 158.610,37.286 159.600 C 37.842 160.590,39.238 163.020,40.389 165.000 C 41.540 166.980,44.719 172.607,47.453 177.504 C 50.186 182.402,53.129 187.501,53.992 188.837 C 54.855 190.172,55.794 191.790,56.078 192.432 C 56.363 193.074,56.731 193.600,56.898 193.600 C 57.064 193.600,57.200 193.772,57.200 193.982 C 57.200 194.193,57.765 195.318,58.456 196.482 C 60.347 199.671,61.133 201.077,63.106 204.800 C 64.097 206.670,65.213 208.650,65.585 209.200 C 66.173 210.068,69.212 215.350,72.490 221.200 C 73.045 222.190,75.331 226.175,77.571 230.055 L 81.642 237.109 80.259 240.655 C 79.498 242.605,77.864 246.900,76.627 250.200 C 75.390 253.500,74.214 256.560,74.013 257.000 C 73.813 257.440,73.259 258.970,72.783 260.400 C 72.307 261.830,71.773 263.360,71.597 263.800 C 71.420 264.240,70.731 266.040,70.065 267.800 C 69.399 269.560,66.937 276.006,64.595 282.124 L 60.336 293.248 61.868 295.413 C 66.217 301.559,72.259 309.422,75.382 313.000 C 76.918 314.760,81.394 319.472,85.328 323.472 C 89.263 327.472,92.365 330.932,92.224 331.162 C 92.082 331.391,89.858 333.147,87.283 335.063 C 84.707 336.979,81.340 339.484,79.800 340.630 C 76.130 343.359,74.703 344.639,75.800 344.216 C 76.240 344.047,77.140 343.759,77.800 343.577 C 78.460 343.395,80.980 342.682,83.400 341.991 C 85.820 341.300,88.340 340.592,89.000 340.417 C 93.379 339.257,101.258 336.993,105.400 335.704 C 107.160 335.157,109.140 334.564,109.800 334.386 C 113.620 333.358,118.763 331.918,119.800 331.587 C 120.460 331.377,122.350 330.840,124.000 330.394 C 128.748 329.111,130.130 328.729,131.200 328.400 C 131.750 328.231,133.010 327.878,134.000 327.615 C 134.990 327.352,136.970 326.791,138.400 326.368 C 139.830 325.946,144.240 324.700,148.200 323.600 C 152.160 322.501,156.300 321.333,157.400 321.006 C 158.500 320.678,161.830 319.787,164.800 319.024 C 167.770 318.261,172.180 317.074,174.600 316.386 C 179.118 315.102,179.755 314.923,183.700 313.835 C 184.965 313.486,186.945 312.936,188.100 312.614 C 189.255 312.291,192.234 311.469,194.721 310.786 L 199.242 309.544 201.258 310.837 C 202.366 311.548,203.482 312.331,203.737 312.577 C 203.991 312.822,206.630 314.740,209.600 316.840 C 212.570 318.939,217.970 322.795,221.600 325.410 C 242.057 340.144,248.151 344.400,248.793 344.400 C 249.636 344.400,255.475 342.006,260.912 339.431 C 263.039 338.424,264.878 337.600,264.999 337.600 C 265.120 337.600,267.780 336.312,270.909 334.737 C 274.039 333.163,277.320 331.536,278.200 331.123 C 279.080 330.709,280.140 330.180,280.555 329.948 C 282.506 328.854,283.945 328.028,285.600 327.048 C 286.590 326.462,288.252 325.492,289.294 324.892 C 291.458 323.645,291.555 323.395,290.272 322.385 C 287.842 320.474,273.793 310.269,270.600 308.095 C 266.917 305.589,260.816 301.213,253.000 295.473 C 247.801 291.655,244.522 289.263,243.176 288.306 C 242.639 287.924,241.030 286.750,239.600 285.696 C 238.170 284.642,235.740 282.891,234.200 281.804 C 232.660 280.717,231.310 279.726,231.200 279.602 C 230.989 279.365,224.501 274.647,220.194 271.600 C 215.059 267.966,199.405 256.579,197.613 255.174 C 196.229 254.089,196.725 253.825,188.278 260.132 C 171.267 272.831,153.721 285.876,152.400 286.804 C 151.630 287.346,150.730 288.010,150.400 288.281 C 149.704 288.851,136.454 298.716,128.000 304.958 C 124.810 307.313,121.929 309.456,121.598 309.720 C 120.979 310.213,117.412 312.827,109.000 318.953 C 106.360 320.875,103.930 322.665,103.600 322.930 C 103.270 323.195,102.370 323.856,101.600 324.400 C 100.830 324.944,99.930 325.611,99.600 325.884 C 93.568 330.863,92.853 330.719,95.214 325.000 C 95.486 324.340,96.201 322.450,96.803 320.800 C 97.405 319.150,101.089 309.340,104.990 299.000 C 108.891 288.660,112.585 278.850,113.200 277.200 C 113.814 275.550,116.151 269.340,118.393 263.400 C 120.635 257.460,122.884 251.340,123.391 249.800 C 124.181 247.397,125.649 243.433,126.798 240.600 C 126.976 240.160,127.482 238.810,127.921 237.600 C 128.361 236.390,129.267 233.960,129.935 232.200 C 132.890 224.416,134.035 221.084,133.922 220.596 C 133.855 220.308,129.390 216.525,124.000 212.188 C 118.610 207.852,113.570 203.795,112.800 203.173 C 112.030 202.551,109.240 200.305,106.600 198.182 C 103.960 196.059,101.347 193.934,100.794 193.461 C 100.241 192.987,99.161 192.127,98.394 191.548 C 97.627 190.970,96.370 189.927,95.600 189.231 C 94.830 188.535,88.350 183.241,81.200 177.467 C 74.050 171.694,65.890 165.087,63.067 162.785 C 60.243 160.483,57.183 158.071,56.267 157.423 C 53.197 155.256,42.800 146.710,42.800 146.354 C 42.800 146.154,68.084 145.959,101.458 145.901 L 160.117 145.800 161.300 142.000 C 161.951 139.910,162.639 137.840,162.828 137.400 C 163.018 136.960,163.561 135.340,164.035 133.800 C 164.510 132.260,166.125 127.220,167.625 122.600 C 169.125 117.980,171.915 109.340,173.826 103.400 C 175.737 97.460,177.979 90.530,178.808 88.000 C 180.206 83.731,183.244 74.057,184.649 69.400 C 185.173 67.662,189.601 53.927,194.386 39.200 C 195.208 36.670,196.979 31.180,198.322 27.000 C 199.664 22.820,201.756 16.350,202.970 12.622 C 205.223 5.705,205.314 5.338,204.579 6.140 M197.597 34.648 C 197.592 35.140,201.701 47.980,203.791 54.000 C 205.776 59.720,207.380 64.547,209.108 70.000 C 211.220 76.666,222.862 112.168,223.208 113.000 C 223.391 113.440,225.897 120.972,228.777 129.739 C 231.657 138.505,234.206 146.037,234.440 146.475 C 234.864 147.267,235.262 147.272,288.899 147.136 C 326.375 147.042,342.975 147.129,343.072 147.420 C 343.150 147.651,341.566 149.181,339.553 150.820 C 337.540 152.459,335.692 153.984,335.447 154.209 C 335.201 154.434,333.560 155.777,331.800 157.195 C 330.040 158.612,328.510 159.881,328.400 160.016 C 328.290 160.150,326.927 161.237,325.370 162.430 C 322.243 164.828,312.316 172.819,312.000 173.193 C 311.890 173.323,307.930 176.604,303.200 180.484 C 298.470 184.364,294.060 188.022,293.400 188.614 C 292.740 189.206,291.570 190.163,290.800 190.742 C 290.030 191.322,289.310 191.897,289.200 192.020 C 289.090 192.144,285.490 195.107,281.200 198.605 C 273.837 204.608,260.348 215.666,258.600 217.131 C 258.160 217.500,256.945 218.498,255.900 219.349 C 253.651 221.180,253.677 220.978,255.198 224.900 C 255.859 226.605,256.957 229.485,257.638 231.300 C 258.319 233.115,259.039 235.005,259.238 235.500 C 259.437 235.995,259.762 236.805,259.961 237.300 C 260.160 237.795,260.682 239.190,261.123 240.400 C 261.563 241.610,262.409 243.860,263.003 245.400 C 263.597 246.940,264.854 250.360,265.796 253.000 C 266.738 255.640,268.176 259.510,268.993 261.600 C 269.809 263.690,271.017 266.840,271.677 268.600 C 272.336 270.360,273.022 272.160,273.199 272.600 C 273.377 273.040,273.917 274.480,274.400 275.800 C 274.883 277.120,275.465 278.650,275.693 279.200 C 276.226 280.488,276.461 281.099,277.998 285.200 C 278.698 287.070,279.518 289.230,279.820 290.000 C 280.122 290.770,281.827 295.270,283.610 300.000 C 285.393 304.730,287.131 309.320,287.472 310.200 C 287.813 311.080,289.317 315.040,290.813 319.000 C 292.309 322.960,294.464 328.630,295.602 331.600 C 296.741 334.570,298.664 339.610,299.876 342.800 C 301.089 345.990,302.801 350.490,303.681 352.800 C 304.561 355.110,305.617 357.900,306.026 359.000 C 306.570 360.460,306.776 360.730,306.788 360.000 C 306.797 359.450,306.803 330.821,306.800 296.380 C 306.796 246.718,306.899 233.629,307.298 233.127 C 307.574 232.779,310.950 230.117,314.800 227.211 C 330.077 215.681,349.956 200.615,352.725 198.468 L 355.650 196.200 355.408 193.600 C 354.737 186.392,353.594 179.390,351.848 171.800 C 351.545 170.480,350.814 167.240,350.225 164.600 C 349.635 161.960,348.999 159.350,348.810 158.800 C 348.622 158.250,348.083 156.090,347.611 154.000 C 347.140 151.910,346.563 149.705,346.329 149.100 C 345.423 146.761,345.095 146.802,364.949 146.782 L 383.000 146.764 368.800 141.039 C 360.990 137.890,350.910 133.833,346.400 132.023 C 339.078 129.084,336.264 127.926,332.200 126.183 C 331.540 125.900,329.290 125.003,327.200 124.191 C 325.110 123.379,322.860 122.480,322.200 122.194 C 321.540 121.908,313.080 118.491,303.400 114.600 C 293.720 110.710,285.277 107.273,284.639 106.963 C 284.000 106.653,283.330 106.400,283.150 106.400 C 282.971 106.400,281.867 105.963,280.698 105.428 C 279.529 104.893,277.859 104.197,276.986 103.881 C 272.875 102.390,264.969 99.007,264.709 98.626 C 264.549 98.392,263.949 96.670,263.376 94.800 C 262.803 92.930,262.007 90.410,261.606 89.200 C 261.205 87.990,259.973 84.120,258.867 80.600 C 257.761 77.080,255.660 70.420,254.198 65.800 C 252.735 61.180,250.638 54.520,249.536 51.000 C 246.425 41.057,246.933 41.926,243.746 41.070 C 233.559 38.330,220.362 36.237,206.825 35.214 C 203.869 34.991,200.584 34.693,199.525 34.552 C 198.466 34.412,197.598 34.455,197.597 34.648 " stroke="none" fill="#952c3f" fill-rule="evenodd"></path><path id="path1" d="M0.000 200.000 L 0.000 400.000 200.000 400.000 L 400.000 400.000 400.000 200.000 L 400.000 0.000 200.000 0.000 L 0.000 0.000 0.000 200.000 M204.267 10.441 C 203.294 13.389,201.469 19.040,200.213 23.000 C 198.957 26.960,197.675 30.971,197.365 31.914 C 197.054 32.857,196.800 33.689,196.800 33.763 C 196.800 33.837,198.825 34.020,201.300 34.170 C 217.121 35.128,243.424 39.314,246.821 41.413 C 246.996 41.521,247.892 43.992,248.812 46.905 C 249.732 49.817,250.897 53.460,251.401 55.000 C 251.905 56.540,252.714 59.150,253.199 60.800 C 253.684 62.450,254.231 64.160,254.414 64.600 C 254.597 65.040,254.937 66.030,255.169 66.800 C 255.401 67.570,256.115 69.820,256.755 71.800 C 257.395 73.780,258.677 77.830,259.603 80.800 C 260.529 83.770,262.000 88.450,262.873 91.200 C 263.745 93.950,264.594 96.650,264.759 97.200 C 265.047 98.161,266.631 99.206,269.400 100.260 C 271.815 101.180,285.041 106.479,286.400 107.071 C 287.170 107.407,288.205 107.843,288.700 108.041 C 289.195 108.238,290.005 108.562,290.500 108.760 C 290.995 108.958,292.253 109.498,293.296 109.960 C 294.338 110.422,295.376 110.800,295.601 110.800 C 295.826 110.800,296.323 110.965,296.705 111.166 C 297.803 111.745,299.215 112.323,316.800 119.394 C 325.930 123.065,333.923 126.323,334.561 126.634 C 335.200 126.945,335.884 127.200,336.081 127.200 C 336.278 127.200,337.184 127.560,338.094 128.000 C 339.005 128.440,339.898 128.800,340.079 128.800 C 340.261 128.800,341.262 129.178,342.304 129.640 C 343.347 130.102,344.560 130.624,345.000 130.800 C 345.440 130.976,346.610 131.475,347.600 131.908 C 348.590 132.341,349.850 132.831,350.400 132.995 C 350.950 133.160,352.120 133.611,353.000 133.998 C 353.880 134.384,357.210 135.734,360.400 136.997 C 366.707 139.494,367.649 139.882,370.496 141.153 C 371.538 141.619,372.633 142.000,372.929 142.000 C 373.225 142.000,373.597 142.130,373.756 142.290 C 373.915 142.449,376.317 143.488,379.093 144.599 C 386.786 147.679,387.133 147.600,365.857 147.600 C 355.622 147.600,347.155 147.750,347.042 147.932 C 346.929 148.115,347.377 150.500,348.039 153.232 C 350.090 161.707,352.360 171.308,352.806 173.400 C 353.041 174.500,353.396 176.030,353.595 176.800 C 353.793 177.570,354.152 179.640,354.391 181.400 C 355.007 185.920,355.531 189.558,356.032 192.778 C 356.613 196.508,357.304 195.648,348.150 202.589 C 346.418 203.903,344.910 205.081,344.800 205.208 C 344.690 205.335,343.970 205.871,343.200 206.400 C 342.430 206.929,341.710 207.466,341.600 207.594 C 341.490 207.721,337.800 210.516,333.400 213.804 C 329.000 217.091,325.310 219.879,325.200 219.998 C 325.090 220.117,323.200 221.558,321.000 223.200 C 318.800 224.842,316.910 226.279,316.800 226.394 C 316.690 226.508,315.565 227.367,314.300 228.301 C 313.035 229.235,311.011 230.741,309.801 231.648 L 307.602 233.295 307.501 297.514 C 307.432 341.571,307.269 361.777,306.984 361.872 C 306.755 361.948,305.435 358.993,304.051 355.305 C 302.667 351.617,301.205 347.790,300.801 346.800 C 300.398 345.810,299.675 343.920,299.195 342.600 C 298.188 339.832,297.866 338.985,297.294 337.600 C 297.067 337.050,296.664 335.970,296.400 335.200 C 296.136 334.430,295.757 333.395,295.560 332.900 C 294.635 330.585,294.280 329.749,293.953 329.105 C 293.759 328.723,293.600 328.136,293.600 327.800 C 293.600 327.464,293.441 326.877,293.247 326.495 C 293.052 326.113,292.660 325.302,292.375 324.692 C 292.090 324.083,291.754 323.724,291.628 323.894 C 291.503 324.064,290.410 324.811,289.200 325.556 C 287.111 326.841,286.436 327.237,282.900 329.257 C 280.748 330.485,268.775 336.476,265.000 338.213 C 256.310 342.211,254.066 343.200,253.679 343.200 C 253.498 343.200,252.641 343.538,251.775 343.951 C 248.821 345.358,248.708 345.347,245.759 343.340 C 244.241 342.308,242.910 341.350,242.800 341.212 C 242.690 341.074,241.970 340.534,241.200 340.011 C 240.430 339.488,236.143 336.437,231.674 333.230 C 222.737 326.818,219.602 324.582,215.400 321.628 C 213.860 320.545,209.720 317.579,206.200 315.036 C 199.885 310.474,197.808 309.525,196.658 310.676 C 196.506 310.828,194.541 311.441,192.291 312.039 C 190.041 312.637,185.230 313.967,181.600 314.995 C 177.970 316.024,174.055 317.120,172.900 317.432 C 171.745 317.745,169.810 318.270,168.600 318.600 C 167.390 318.930,165.410 319.470,164.200 319.800 C 161.439 320.553,157.769 321.566,156.200 322.007 C 155.540 322.193,153.650 322.700,152.000 323.134 C 150.350 323.568,148.010 324.224,146.800 324.593 C 145.590 324.961,143.880 325.449,143.000 325.678 C 142.120 325.906,140.950 326.231,140.400 326.400 C 139.850 326.569,138.590 326.929,137.600 327.200 C 136.610 327.471,135.350 327.831,134.800 328.000 C 134.250 328.169,133.080 328.509,132.200 328.756 C 131.320 329.003,124.840 330.838,117.800 332.834 C 110.760 334.830,103.920 336.743,102.600 337.086 C 101.280 337.429,99.840 337.844,99.400 338.009 C 98.960 338.174,97.790 338.530,96.800 338.801 C 95.810 339.071,94.550 339.439,94.000 339.617 C 93.450 339.795,92.010 340.167,90.800 340.444 C 89.590 340.720,88.429 341.093,88.220 341.273 C 88.011 341.453,87.424 341.600,86.915 341.600 C 86.406 341.600,85.677 341.771,85.295 341.980 C 84.913 342.189,83.430 342.653,82.000 343.012 C 79.031 343.756,77.550 344.162,75.700 344.739 C 73.723 345.355,74.016 344.322,76.300 342.624 C 77.345 341.847,78.380 341.068,78.600 340.892 C 78.820 340.716,81.916 338.405,85.481 335.755 L 91.961 330.938 85.281 324.152 C 74.786 313.492,73.102 311.546,65.458 301.246 C 59.901 293.758,59.660 293.282,60.450 291.319 C 60.697 290.703,61.081 289.750,61.303 289.200 C 61.862 287.815,62.148 287.068,63.523 283.400 C 64.183 281.640,65.350 278.580,66.116 276.600 C 67.324 273.480,69.570 267.470,72.468 259.600 C 72.913 258.390,73.422 257.040,73.599 256.600 C 73.775 256.160,74.139 255.170,74.407 254.400 C 74.675 253.630,75.128 252.460,75.414 251.800 C 75.700 251.140,76.236 249.790,76.604 248.800 C 76.973 247.810,77.438 246.595,77.637 246.100 C 77.837 245.605,78.162 244.795,78.361 244.300 C 78.560 243.805,79.114 242.320,79.593 241.000 C 80.072 239.680,80.640 238.271,80.855 237.869 C 81.103 237.405,81.107 236.966,80.866 236.669 C 80.656 236.411,80.106 235.525,79.643 234.700 C 79.179 233.875,78.440 232.570,78.000 231.800 C 77.560 231.030,76.840 229.770,76.400 229.000 C 75.960 228.230,75.240 226.970,74.800 226.200 C 73.003 223.055,72.397 222.011,69.928 217.800 C 68.509 215.380,66.801 212.410,66.133 211.200 C 65.465 209.990,64.503 208.280,63.997 207.400 C 63.491 206.520,62.592 204.900,62.000 203.800 C 60.799 201.568,59.905 200.000,58.056 196.882 C 57.365 195.718,56.800 194.696,56.800 194.612 C 56.800 194.528,55.874 192.961,54.741 191.129 C 53.609 189.298,51.612 185.910,50.305 183.600 C 48.997 181.290,47.493 178.729,46.963 177.909 C 46.434 177.088,46.000 176.221,46.000 175.981 C 46.000 175.741,45.499 174.792,44.888 173.872 C 44.276 172.952,43.517 171.660,43.200 171.000 C 42.883 170.340,42.124 169.048,41.512 168.128 C 40.901 167.208,40.400 166.376,40.400 166.279 C 40.400 166.181,38.126 162.164,35.347 157.351 C 29.990 148.071,29.268 146.820,28.000 144.600 C 27.560 143.830,26.840 142.570,26.400 141.800 C 25.960 141.030,25.263 139.815,24.851 139.100 C 16.100 123.921,16.017 124.302,26.261 132.625 C 41.832 145.276,41.725 145.195,42.272 144.740 C 42.562 144.499,42.800 144.149,42.800 143.963 C 42.800 143.776,43.250 142.628,43.800 141.412 C 44.350 140.195,45.227 138.255,45.750 137.100 C 49.945 127.827,56.789 114.827,62.493 105.300 L 64.469 102.000 94.797 102.000 L 125.125 102.000 126.463 100.364 C 127.198 99.464,128.070 98.400,128.400 98.000 C 128.730 97.600,129.630 96.494,130.400 95.544 C 131.170 94.594,133.513 91.742,135.608 89.208 C 137.702 86.674,140.575 83.160,141.993 81.400 C 143.410 79.640,144.849 77.930,145.190 77.600 C 145.530 77.270,146.314 76.321,146.931 75.492 C 147.883 74.213,154.192 66.495,159.597 60.000 C 160.420 59.010,162.862 56.040,165.022 53.400 C 167.182 50.760,170.128 47.160,171.568 45.400 C 173.008 43.640,174.280 42.110,174.395 42.000 C 174.510 41.890,175.096 41.141,175.696 40.335 C 176.297 39.529,177.020 38.629,177.303 38.335 C 177.586 38.041,178.977 36.360,180.395 34.600 C 181.812 32.840,183.074 31.310,183.200 31.200 C 183.326 31.090,185.396 28.570,187.800 25.600 C 190.204 22.630,192.274 20.110,192.400 20.000 C 192.526 19.890,193.790 18.360,195.209 16.600 C 206.667 2.391,207.000 2.165,204.267 10.441 M193.638 43.526 C 192.016 48.517,189.995 54.760,189.145 57.400 C 188.296 60.040,187.313 63.010,186.962 64.000 C 186.611 64.990,185.816 67.510,185.195 69.600 C 184.574 71.690,183.224 76.010,182.196 79.200 C 181.168 82.390,180.064 85.900,179.743 87.000 C 179.144 89.055,178.561 90.795,178.000 92.200 C 177.526 93.388,176.954 95.176,176.401 97.200 C 176.130 98.190,175.767 99.360,175.595 99.800 C 175.080 101.112,174.511 102.837,173.617 105.800 C 173.153 107.340,172.617 108.960,172.427 109.400 C 172.237 109.840,171.691 111.550,171.215 113.200 C 170.739 114.850,170.187 116.560,169.990 117.000 C 169.792 117.440,169.333 118.790,168.968 120.000 C 168.295 122.236,164.923 132.793,163.602 136.800 C 163.203 138.010,162.494 140.260,162.025 141.800 C 161.556 143.340,160.969 145.004,160.719 145.499 L 160.266 146.397 101.912 146.499 L 43.557 146.600 49.079 151.053 C 52.115 153.502,55.423 156.132,56.429 156.897 C 57.436 157.661,58.606 158.572,59.029 158.921 C 59.453 159.270,61.780 161.127,64.200 163.047 C 66.620 164.968,69.247 167.093,70.037 167.770 C 70.828 168.446,71.822 169.270,72.246 169.600 C 74.281 171.182,79.049 175.018,79.437 175.386 C 79.677 175.614,80.466 176.250,81.190 176.800 C 81.914 177.350,82.822 178.070,83.208 178.400 C 83.594 178.730,84.535 179.495,85.298 180.099 C 86.062 180.704,88.557 182.733,90.843 184.610 C 94.096 187.280,120.599 208.741,124.163 211.590 C 124.582 211.926,125.572 212.746,126.363 213.413 C 127.153 214.080,129.150 215.690,130.800 216.990 C 135.462 220.666,135.265 219.714,132.754 226.400 C 131.887 228.710,130.536 232.310,129.753 234.400 C 126.800 242.278,125.914 244.623,125.599 245.400 C 124.810 247.344,123.858 249.975,123.169 252.114 C 122.760 253.386,122.172 255.006,121.862 255.714 C 121.553 256.421,120.206 259.970,118.869 263.600 C 115.761 272.039,109.654 288.357,109.214 289.400 C 108.900 290.144,108.236 291.898,105.239 299.900 C 104.600 301.605,103.631 304.170,103.085 305.600 C 102.538 307.030,101.160 310.720,100.022 313.800 C 98.884 316.880,97.492 320.570,96.929 322.000 C 95.357 325.992,94.420 328.800,94.660 328.800 C 94.897 328.800,97.278 327.183,97.600 326.803 C 97.710 326.673,100.410 324.645,103.600 322.296 C 106.790 319.947,109.580 317.880,109.800 317.702 C 110.020 317.524,111.436 316.483,112.948 315.389 C 115.524 313.524,125.017 306.489,141.800 294.007 C 149.330 288.406,162.052 278.958,168.200 274.400 C 170.180 272.932,177.151 267.741,183.691 262.865 C 190.232 257.989,195.911 254.000,196.312 254.000 C 196.713 254.000,198.562 255.140,200.421 256.532 C 202.279 257.925,207.130 261.470,211.200 264.409 C 215.270 267.348,219.950 270.740,221.600 271.947 C 226.923 275.838,231.255 278.989,234.800 281.547 C 235.790 282.261,238.499 284.230,240.820 285.923 C 243.141 287.615,246.178 289.810,247.568 290.800 C 248.958 291.790,250.331 292.825,250.619 293.100 C 250.907 293.375,251.321 293.600,251.538 293.600 C 251.755 293.600,251.993 293.745,252.067 293.923 C 252.140 294.101,253.010 294.814,254.000 295.507 C 254.990 296.201,258.410 298.671,261.600 300.996 C 264.790 303.322,268.750 306.151,270.400 307.282 C 272.050 308.413,273.460 309.488,273.533 309.670 C 273.607 309.851,273.830 310.000,274.030 310.000 C 274.230 310.000,275.169 310.585,276.117 311.300 C 277.065 312.015,278.282 312.915,278.820 313.300 C 280.627 314.591,286.577 318.947,288.954 320.720 C 291.879 322.901,291.979 323.463,287.217 311.000 C 285.200 305.720,283.188 300.410,282.746 299.200 C 282.305 297.990,281.793 296.640,281.610 296.200 C 281.426 295.760,280.702 293.870,280.000 292.000 C 279.298 290.130,278.537 288.150,278.308 287.600 C 277.721 286.186,277.352 285.207,276.800 283.600 C 276.536 282.830,276.133 281.750,275.906 281.200 C 275.376 279.916,275.143 279.312,273.600 275.200 C 272.898 273.330,272.177 271.440,271.999 271.000 C 271.292 269.260,269.558 264.645,266.815 257.200 C 265.235 252.910,263.792 249.040,263.610 248.600 C 263.427 248.160,262.883 246.720,262.400 245.400 C 261.917 244.080,261.369 242.640,261.181 242.200 C 260.994 241.760,260.094 239.420,259.181 237.000 C 258.269 234.580,256.659 230.350,255.603 227.600 C 254.547 224.850,253.569 222.217,253.430 221.749 C 253.161 220.845,254.117 219.915,260.792 214.588 C 262.438 213.275,264.238 211.819,264.792 211.352 C 268.281 208.417,271.383 205.869,274.000 203.788 C 275.650 202.476,277.090 201.306,277.200 201.187 C 277.310 201.068,278.840 199.814,280.600 198.400 C 282.360 196.986,283.890 195.724,284.000 195.595 C 284.110 195.467,286.090 193.849,288.400 192.000 C 290.710 190.151,292.690 188.533,292.800 188.406 C 293.093 188.066,299.774 182.519,304.569 178.635 C 312.092 172.541,319.973 166.097,321.216 165.023 C 321.995 164.351,323.242 163.350,323.988 162.800 C 325.411 161.749,327.116 160.381,328.797 158.940 C 329.979 157.926,338.896 150.646,340.727 149.200 C 341.423 148.650,341.994 148.039,341.996 147.842 C 341.999 147.631,319.961 147.605,288.495 147.779 C 236.816 148.064,234.969 148.049,234.351 147.337 C 234.000 146.932,233.123 144.710,232.402 142.400 C 231.682 140.090,230.913 137.750,230.693 137.200 C 229.924 135.278,229.681 134.554,227.600 128.000 C 226.447 124.370,225.355 121.040,225.172 120.600 C 224.812 119.732,221.565 109.882,219.832 104.400 C 219.241 102.530,218.601 100.640,218.409 100.200 C 218.217 99.760,216.958 95.980,215.611 91.800 C 214.264 87.620,213.011 83.840,212.827 83.400 C 212.642 82.960,212.270 81.790,212.000 80.800 C 211.730 79.810,211.367 78.640,211.195 78.200 C 211.022 77.760,210.704 76.860,210.487 76.200 C 210.270 75.540,207.801 67.980,204.999 59.400 C 202.198 50.820,199.758 43.440,199.577 43.000 C 199.397 42.560,198.682 40.490,197.989 38.400 C 197.296 36.310,196.697 34.567,196.657 34.526 C 196.618 34.485,195.259 38.535,193.638 43.526 " stroke="none" fill="#fbfbfb" fill-rule="evenodd"></path><path id="path2" d="M201.791 8.607 C 199.590 11.243,196.628 14.840,195.209 16.600 C 193.790 18.360,192.526 19.890,192.400 20.000 C 192.274 20.110,190.204 22.630,187.800 25.600 C 185.396 28.570,183.326 31.090,183.200 31.200 C 183.074 31.310,181.812 32.840,180.395 34.600 C 178.977 36.360,177.586 38.041,177.303 38.335 C 177.020 38.629,176.297 39.529,175.696 40.335 C 175.096 41.141,174.510 41.890,174.395 42.000 C 174.280 42.110,173.008 43.640,171.568 45.400 C 170.128 47.160,167.182 50.760,165.022 53.400 C 162.862 56.040,160.420 59.010,159.597 60.000 C 154.192 66.495,147.883 74.213,146.931 75.492 C 146.314 76.321,145.530 77.270,145.190 77.600 C 144.849 77.930,143.410 79.640,141.993 81.400 C 140.575 83.160,137.702 86.674,135.608 89.208 C 133.513 91.742,131.170 94.594,130.400 95.544 C 129.630 96.494,128.730 97.600,128.400 98.000 C 128.070 98.400,127.198 99.464,126.463 100.364 L 125.125 102.000 94.797 102.000 L 64.469 102.000 62.493 105.300 C 56.789 114.827,49.945 127.827,45.750 137.100 C 45.227 138.255,44.350 140.195,43.800 141.412 C 43.250 142.628,42.800 143.776,42.800 143.963 C 42.800 144.149,42.562 144.499,42.272 144.740 C 41.725 145.195,41.832 145.276,26.261 132.625 C 16.017 124.302,16.100 123.921,24.851 139.100 C 25.263 139.815,25.960 141.030,26.400 141.800 C 26.840 142.570,27.560 143.830,28.000 144.600 C 29.268 146.820,29.990 148.071,35.347 157.351 C 38.126 162.164,40.400 166.181,40.400 166.279 C 40.400 166.376,40.901 167.208,41.512 168.128 C 42.124 169.048,42.883 170.340,43.200 171.000 C 43.517 171.660,44.276 172.952,44.888 173.872 C 45.499 174.792,46.000 175.741,46.000 175.981 C 46.000 176.221,46.434 177.088,46.963 177.909 C 47.493 178.729,48.997 181.290,50.305 183.600 C 51.612 185.910,53.609 189.298,54.741 191.129 C 55.874 192.961,56.800 194.528,56.800 194.612 C 56.800 194.696,57.365 195.718,58.056 196.882 C 59.905 200.000,60.799 201.568,62.000 203.800 C 62.592 204.900,63.491 206.520,63.997 207.400 C 64.503 208.280,65.465 209.990,66.133 211.200 C 66.801 212.410,68.509 215.380,69.928 217.800 C 72.397 222.011,73.003 223.055,74.800 226.200 C 75.240 226.970,75.960 228.230,76.400 229.000 C 76.840 229.770,77.560 231.030,78.000 231.800 C 78.440 232.570,79.179 233.875,79.643 234.700 C 80.106 235.525,80.656 236.411,80.866 236.669 C 81.107 236.966,81.103 237.405,80.855 237.869 C 80.640 238.271,80.072 239.680,79.593 241.000 C 79.114 242.320,78.560 243.805,78.361 244.300 C 78.162 244.795,77.837 245.605,77.637 246.100 C 77.438 246.595,76.973 247.810,76.604 248.800 C 76.236 249.790,75.700 251.140,75.414 251.800 C 75.128 252.460,74.675 253.630,74.407 254.400 C 74.139 255.170,73.775 256.160,73.599 256.600 C 73.422 257.040,72.913 258.390,72.468 259.600 C 69.570 267.470,67.324 273.480,66.116 276.600 C 65.350 278.580,64.183 281.640,63.523 283.400 C 62.148 287.068,61.862 287.815,61.303 289.200 C 59.514 293.633,59.258 292.893,65.458 301.246 C 73.102 311.546,74.786 313.492,85.281 324.152 L 91.961 330.938 85.481 335.755 C 81.916 338.405,78.820 340.716,78.600 340.892 C 78.380 341.068,77.345 341.847,76.300 342.624 C 74.016 344.322,73.723 345.355,75.700 344.739 C 77.550 344.162,79.031 343.756,82.000 343.012 C 83.430 342.653,84.913 342.189,85.295 341.980 C 85.677 341.771,86.406 341.600,86.915 341.600 C 87.424 341.600,88.011 341.453,88.220 341.273 C 88.429 341.093,89.590 340.720,90.800 340.444 C 92.010 340.167,93.450 339.795,94.000 339.617 C 94.550 339.439,95.810 339.071,96.800 338.799 C 99.679 338.010,99.725 337.992,99.494 337.761 C 99.373 337.640,97.232 338.115,94.737 338.818 C 92.242 339.520,89.660 340.239,89.000 340.415 C 88.340 340.591,85.820 341.300,83.400 341.991 C 80.980 342.682,78.460 343.395,77.800 343.577 C 77.140 343.759,76.240 344.047,75.800 344.216 C 74.703 344.639,76.130 343.359,79.800 340.630 C 81.340 339.484,84.707 336.979,87.283 335.063 C 89.858 333.147,92.082 331.391,92.224 331.162 C 92.365 330.932,89.263 327.472,85.328 323.472 C 81.394 319.472,76.918 314.760,75.382 313.000 C 72.259 309.422,66.217 301.559,61.868 295.413 L 60.336 293.248 64.595 282.124 C 66.937 276.006,69.399 269.560,70.065 267.800 C 70.731 266.040,71.420 264.240,71.597 263.800 C 71.773 263.360,72.307 261.830,72.783 260.400 C 73.259 258.970,73.813 257.440,74.013 257.000 C 74.214 256.560,75.390 253.500,76.627 250.200 C 77.864 246.900,79.498 242.605,80.259 240.655 L 81.642 237.109 77.571 230.055 C 75.331 226.175,73.045 222.190,72.490 221.200 C 69.212 215.350,66.173 210.068,65.585 209.200 C 65.213 208.650,64.097 206.670,63.106 204.800 C 61.133 201.077,60.347 199.671,58.456 196.482 C 57.765 195.318,57.200 194.193,57.200 193.982 C 57.200 193.772,57.064 193.600,56.898 193.600 C 56.731 193.600,56.363 193.074,56.078 192.432 C 55.794 191.790,54.855 190.172,53.992 188.837 C 53.129 187.501,50.186 182.402,47.453 177.504 C 44.719 172.607,41.540 166.980,40.389 165.000 C 39.238 163.020,37.842 160.590,37.286 159.600 C 36.731 158.610,33.940 153.750,31.085 148.800 C 24.485 137.356,24.478 137.344,23.289 135.200 C 22.740 134.210,21.678 132.343,20.929 131.050 C 20.180 129.758,19.653 128.613,19.759 128.508 C 19.912 128.355,27.202 133.922,28.000 134.800 C 28.110 134.922,29.010 135.641,30.000 136.400 C 30.990 137.159,31.890 137.886,32.000 138.016 C 35.647 142.324,43.200 146.558,43.200 144.294 C 43.200 144.100,44.100 142.043,45.200 139.722 C 46.300 137.402,47.200 135.432,47.200 135.345 C 47.200 134.861,55.729 118.158,57.996 114.200 C 58.501 113.320,59.361 111.790,59.908 110.800 C 61.670 107.614,64.559 103.009,64.986 102.706 C 65.213 102.544,78.919 102.409,95.442 102.406 L 125.484 102.400 128.642 98.542 C 130.379 96.419,134.116 91.874,136.946 88.442 C 145.025 78.643,147.023 76.207,157.330 63.600 C 158.678 61.950,160.014 60.359,160.297 60.065 C 160.580 59.771,161.304 58.871,161.906 58.065 C 162.508 57.259,163.180 56.402,163.400 56.159 C 163.983 55.516,166.088 52.959,171.598 46.200 C 174.288 42.900,176.874 39.750,177.344 39.200 C 177.815 38.650,179.809 36.220,181.776 33.800 C 183.742 31.380,185.902 28.753,186.576 27.963 C 187.249 27.172,188.070 26.179,188.400 25.757 C 189.420 24.450,192.577 20.611,192.806 20.400 C 192.925 20.290,195.380 17.320,198.262 13.800 C 204.295 6.431,205.405 5.168,205.118 6.000 C 204.814 6.880,201.131 18.262,198.323 27.000 C 196.980 31.180,195.208 36.670,194.386 39.200 C 189.601 53.927,185.173 67.662,184.649 69.400 C 183.238 74.076,180.204 83.736,178.807 88.000 C 176.512 95.003,170.967 112.180,169.788 115.937 C 169.213 117.773,168.828 119.362,168.934 119.468 C 169.040 119.574,169.245 119.242,169.389 118.730 C 169.533 118.219,169.807 117.440,170.000 117.000 C 170.192 116.560,170.739 114.850,171.215 113.200 C 171.691 111.550,172.225 109.840,172.400 109.400 C 172.905 108.134,173.473 106.416,174.383 103.400 C 174.847 101.860,175.381 100.240,175.568 99.800 C 175.756 99.360,176.130 98.190,176.401 97.200 C 177.002 95.002,177.567 93.263,178.027 92.200 C 178.217 91.760,178.759 90.140,179.231 88.600 C 180.620 84.068,183.200 75.928,183.796 74.200 C 184.099 73.320,184.729 71.250,185.195 69.600 C 185.661 67.950,186.371 65.700,186.772 64.600 C 187.174 63.500,188.245 60.260,189.153 57.400 C 190.061 54.540,192.119 48.174,193.726 43.254 L 196.649 34.307 197.946 38.254 C 198.659 40.424,199.392 42.560,199.574 43.000 C 199.757 43.440,202.198 50.820,204.999 59.400 C 207.801 67.980,210.270 75.540,210.487 76.200 C 210.704 76.860,211.022 77.760,211.195 78.200 C 211.367 78.640,211.730 79.810,212.000 80.800 C 212.270 81.790,212.642 82.960,212.827 83.400 C 213.011 83.840,214.264 87.620,215.611 91.800 C 216.958 95.980,218.217 99.760,218.409 100.200 C 218.601 100.640,219.241 102.530,219.832 104.400 C 221.565 109.882,224.812 119.732,225.172 120.600 C 225.355 121.040,226.447 124.370,227.600 128.000 C 228.753 131.630,229.838 134.960,230.012 135.400 C 230.185 135.840,230.438 136.541,230.573 136.957 C 230.708 137.374,230.916 137.618,231.034 137.499 C 231.213 137.320,224.247 115.519,223.206 113.000 C 222.859 112.161,211.186 76.559,209.108 70.000 C 207.380 64.547,205.776 59.720,203.791 54.000 C 200.918 45.722,197.493 34.773,197.709 34.557 C 197.821 34.446,199.777 34.540,202.056 34.767 C 204.335 34.994,208.540 35.383,211.400 35.630 C 222.431 36.586,234.818 38.669,243.746 41.070 C 246.933 41.926,246.425 41.057,249.536 51.000 C 250.638 54.520,252.735 61.180,254.198 65.800 C 255.660 70.420,257.761 77.080,258.867 80.600 C 259.973 84.120,261.205 87.990,261.606 89.200 C 262.007 90.410,262.803 92.930,263.376 94.800 C 263.949 96.670,264.549 98.392,264.709 98.626 C 264.969 99.007,272.875 102.390,276.986 103.881 C 277.859 104.197,279.529 104.893,280.698 105.428 C 281.867 105.963,282.971 106.400,283.150 106.400 C 283.330 106.400,284.000 106.653,284.639 106.963 C 285.277 107.273,293.720 110.710,303.400 114.600 C 313.080 118.491,321.540 121.908,322.200 122.194 C 322.860 122.480,325.110 123.379,327.200 124.191 C 329.290 125.003,331.540 125.900,332.200 126.183 C 336.264 127.926,339.078 129.084,346.400 132.023 C 350.910 133.833,360.990 137.890,368.800 141.039 L 383.000 146.764 364.949 146.782 C 345.095 146.802,345.423 146.761,346.329 149.100 C 346.563 149.705,347.140 151.910,347.611 154.000 C 348.083 156.090,348.622 158.250,348.810 158.800 C 348.999 159.350,349.635 161.960,350.225 164.600 C 350.814 167.240,351.545 170.480,351.848 171.800 C 353.594 179.390,354.737 186.392,355.408 193.600 L 355.650 196.200 352.725 198.468 C 349.956 200.615,330.077 215.681,314.800 227.211 C 310.950 230.117,307.574 232.779,307.298 233.127 C 306.899 233.629,306.796 246.718,306.800 296.380 C 306.803 330.821,306.797 359.450,306.788 360.000 C 306.776 360.730,306.570 360.460,306.026 359.000 C 305.617 357.900,304.561 355.110,303.681 352.800 C 302.801 350.490,301.089 345.990,299.876 342.800 C 298.664 339.610,296.741 334.570,295.602 331.600 C 294.464 328.630,292.309 322.960,290.813 319.000 C 289.317 315.040,287.813 311.080,287.472 310.200 C 287.131 309.320,285.393 304.730,283.610 300.000 C 281.827 295.270,280.122 290.770,279.820 290.000 C 279.518 289.230,278.698 287.070,277.998 285.200 C 276.461 281.099,276.226 280.488,275.693 279.200 C 275.465 278.650,274.883 277.120,274.400 275.800 C 273.917 274.480,273.377 273.040,273.199 272.600 C 273.022 272.160,272.336 270.360,271.677 268.600 C 271.017 266.840,269.809 263.690,268.993 261.600 C 268.176 259.510,266.738 255.640,265.796 253.000 C 264.854 250.360,263.597 246.940,263.003 245.400 C 262.409 243.860,261.563 241.610,261.123 240.400 C 260.682 239.190,260.160 237.795,259.961 237.300 C 259.762 236.805,259.437 235.995,259.238 235.500 C 259.039 235.005,258.319 233.115,257.638 231.300 C 256.957 229.485,255.859 226.605,255.198 224.900 C 253.677 220.978,253.651 221.180,255.900 219.349 C 256.945 218.498,258.160 217.500,258.600 217.131 C 260.348 215.666,273.837 204.608,281.200 198.605 C 285.490 195.107,289.090 192.144,289.200 192.020 C 289.310 191.897,290.030 191.322,290.800 190.742 C 291.570 190.163,292.740 189.206,293.400 188.614 C 294.060 188.022,298.470 184.364,303.200 180.484 C 307.930 176.604,311.890 173.323,312.000 173.193 C 312.316 172.819,322.243 164.828,325.370 162.430 C 326.927 161.237,328.290 160.150,328.400 160.016 C 328.510 159.881,330.040 158.612,331.800 157.195 C 333.560 155.777,335.201 154.434,335.447 154.209 C 335.692 153.984,337.540 152.459,339.553 150.820 C 341.566 149.181,343.150 147.651,343.072 147.420 C 342.975 147.129,326.374 147.042,288.895 147.136 L 234.858 147.273 234.291 146.136 C 233.978 145.511,233.215 143.381,232.594 141.401 C 231.974 139.422,231.393 138.022,231.303 138.290 C 231.073 138.982,233.593 146.452,234.356 147.337 C 234.969 148.049,236.815 148.064,288.495 147.779 C 319.961 147.605,341.999 147.631,341.996 147.842 C 341.994 148.039,341.423 148.650,340.727 149.200 C 338.896 150.646,329.979 157.926,328.797 158.940 C 327.116 160.381,325.411 161.749,323.988 162.800 C 323.242 163.350,321.995 164.351,321.216 165.023 C 319.973 166.097,312.092 172.541,304.569 178.635 C 299.774 182.519,293.093 188.066,292.800 188.406 C 292.690 188.533,290.710 190.151,288.400 192.000 C 286.090 193.849,284.110 195.467,284.000 195.595 C 283.890 195.724,282.360 196.986,280.600 198.400 C 278.840 199.814,277.310 201.068,277.200 201.187 C 277.090 201.306,275.650 202.476,274.000 203.788 C 271.383 205.869,268.281 208.417,264.792 211.352 C 264.238 211.819,262.438 213.275,260.792 214.588 C 254.117 219.915,253.161 220.845,253.430 221.749 C 253.569 222.217,254.547 224.850,255.603 227.600 C 256.659 230.350,258.269 234.580,259.181 237.000 C 260.094 239.420,260.994 241.760,261.181 242.200 C 261.369 242.640,261.917 244.080,262.400 245.400 C 262.883 246.720,263.427 248.160,263.610 248.600 C 263.792 249.040,265.235 252.910,266.815 257.200 C 269.558 264.645,271.292 269.260,271.999 271.000 C 272.177 271.440,272.898 273.330,273.600 275.200 C 274.302 277.070,275.063 279.050,275.292 279.600 C 275.879 281.014,276.248 281.993,276.800 283.600 C 277.064 284.370,277.467 285.450,277.694 286.000 C 278.224 287.284,278.457 287.888,280.000 292.000 C 280.702 293.870,281.426 295.760,281.610 296.200 C 281.793 296.640,282.305 297.990,282.746 299.200 C 283.188 300.410,285.200 305.720,287.217 311.000 C 291.979 323.463,291.879 322.901,288.954 320.720 C 286.577 318.947,280.627 314.591,278.820 313.300 C 278.282 312.915,277.065 312.015,276.117 311.300 C 275.169 310.585,274.230 310.000,274.030 310.000 C 273.830 310.000,273.607 309.851,273.533 309.670 C 273.460 309.488,272.050 308.413,270.400 307.282 C 268.750 306.151,264.790 303.322,261.600 300.996 C 258.410 298.671,254.990 296.201,254.000 295.507 C 253.010 294.814,252.140 294.101,252.067 293.923 C 251.993 293.745,251.755 293.600,251.538 293.600 C 251.321 293.600,250.907 293.375,250.619 293.100 C 250.331 292.825,248.958 291.790,247.568 290.800 C 246.178 289.810,243.141 287.615,240.820 285.923 C 238.499 284.230,235.790 282.261,234.800 281.547 C 229.872 277.991,229.000 277.357,221.600 271.947 C 219.950 270.740,215.270 267.348,211.200 264.409 C 207.130 261.470,202.279 257.925,200.421 256.532 C 198.562 255.140,196.713 254.000,196.312 254.000 C 195.911 254.000,190.232 257.989,183.691 262.865 C 177.151 267.741,170.180 272.932,168.200 274.400 C 162.052 278.958,149.330 288.406,141.800 294.007 C 125.017 306.489,115.524 313.524,112.948 315.389 C 111.436 316.483,110.020 317.524,109.800 317.702 C 109.580 317.880,106.790 319.947,103.600 322.296 C 100.410 324.645,97.710 326.673,97.600 326.803 C 97.278 327.183,94.897 328.800,94.660 328.800 C 94.420 328.800,95.357 325.992,96.929 322.000 C 97.492 320.570,98.884 316.880,100.022 313.800 C 101.160 310.720,102.538 307.030,103.085 305.600 C 103.631 304.170,104.600 301.605,105.239 299.900 C 108.236 291.898,108.900 290.144,109.214 289.400 C 109.654 288.357,115.761 272.039,118.869 263.600 C 120.206 259.970,121.553 256.421,121.862 255.714 C 122.172 255.006,122.760 253.386,123.169 252.114 C 123.858 249.975,124.810 247.344,125.599 245.400 C 125.965 244.498,127.549 240.304,129.979 233.800 C 130.883 231.380,132.234 227.780,132.980 225.800 C 135.231 219.828,135.433 220.642,130.800 216.990 C 129.150 215.690,127.153 214.080,126.363 213.413 C 125.572 212.746,124.582 211.926,124.163 211.590 C 120.599 208.741,94.096 187.280,90.843 184.610 C 88.557 182.733,86.062 180.704,85.298 180.099 C 84.535 179.495,83.594 178.730,83.208 178.400 C 82.822 178.070,81.914 177.350,81.190 176.800 C 80.466 176.250,79.677 175.614,79.437 175.386 C 79.049 175.018,74.281 171.182,72.246 169.600 C 71.822 169.270,70.828 168.446,70.037 167.770 C 69.247 167.093,66.620 164.968,64.200 163.047 C 61.780 161.127,59.453 159.270,59.029 158.921 C 58.606 158.572,57.436 157.661,56.429 156.897 C 55.423 156.132,52.115 153.502,49.079 151.053 L 43.557 146.600 101.912 146.499 L 160.266 146.397 160.719 145.499 C 160.969 145.004,161.556 143.340,162.025 141.800 C 162.494 140.260,163.205 138.010,163.606 136.800 C 166.876 126.928,168.809 120.628,168.685 120.254 C 168.603 120.009,167.500 123.047,166.233 127.005 C 163.691 134.945,163.269 136.223,162.801 137.400 C 162.627 137.840,161.951 139.910,161.300 142.000 L 160.117 145.800 101.458 145.901 C 68.084 145.959,42.800 146.154,42.800 146.354 C 42.800 146.710,53.197 155.256,56.267 157.423 C 57.183 158.071,60.243 160.483,63.067 162.785 C 65.890 165.087,74.050 171.694,81.200 177.467 C 88.350 183.241,94.830 188.535,95.600 189.231 C 96.370 189.927,97.627 190.970,98.394 191.548 C 99.161 192.127,100.241 192.987,100.794 193.461 C 101.347 193.934,103.960 196.059,106.600 198.182 C 109.240 200.305,112.030 202.551,112.800 203.173 C 113.570 203.795,118.610 207.852,124.000 212.188 C 129.390 216.525,133.855 220.308,133.922 220.596 C 134.035 221.084,132.890 224.416,129.935 232.200 C 129.267 233.960,128.361 236.390,127.921 237.600 C 127.482 238.810,126.976 240.160,126.798 240.600 C 125.649 243.433,124.181 247.397,123.391 249.800 C 122.884 251.340,120.635 257.460,118.393 263.400 C 116.151 269.340,113.814 275.550,113.200 277.200 C 112.585 278.850,108.891 288.660,104.990 299.000 C 101.089 309.340,97.405 319.150,96.803 320.800 C 96.201 322.450,95.486 324.340,95.214 325.000 C 92.853 330.719,93.568 330.863,99.600 325.884 C 99.930 325.611,100.830 324.944,101.600 324.400 C 102.370 323.856,103.270 323.195,103.600 322.930 C 103.930 322.665,106.360 320.875,109.000 318.953 C 117.412 312.827,120.979 310.213,121.598 309.720 C 121.929 309.456,124.810 307.313,128.000 304.958 C 136.454 298.716,149.704 288.851,150.400 288.281 C 150.730 288.010,151.630 287.346,152.400 286.804 C 153.721 285.876,171.267 272.831,188.278 260.132 C 196.725 253.825,196.229 254.089,197.613 255.174 C 199.405 256.579,215.059 267.966,220.194 271.600 C 224.501 274.647,230.989 279.365,231.200 279.602 C 231.310 279.726,232.660 280.717,234.200 281.804 C 235.740 282.891,238.170 284.642,239.600 285.696 C 241.030 286.750,242.639 287.924,243.176 288.306 C 244.522 289.263,247.801 291.655,253.000 295.473 C 260.816 301.213,266.917 305.589,270.600 308.095 C 273.793 310.269,287.842 320.474,290.272 322.385 C 291.555 323.395,291.458 323.645,289.294 324.892 C 288.252 325.492,286.590 326.462,285.600 327.048 C 281.991 329.184,280.970 329.749,279.400 330.482 C 278.520 330.893,277.464 331.417,277.053 331.647 C 275.484 332.525,265.208 337.600,264.999 337.600 C 264.878 337.600,263.039 338.424,260.912 339.431 C 255.475 342.006,249.636 344.400,248.793 344.400 C 248.151 344.400,242.057 340.144,221.600 325.410 C 217.970 322.795,212.570 318.939,209.600 316.840 C 206.630 314.740,203.991 312.822,203.737 312.577 C 203.482 312.331,202.366 311.548,201.258 310.837 L 199.242 309.544 194.721 310.786 C 192.234 311.469,189.255 312.291,188.100 312.614 C 186.945 312.936,184.965 313.486,183.700 313.835 C 179.755 314.923,179.118 315.102,174.600 316.386 C 172.180 317.074,167.770 318.261,164.800 319.024 C 161.830 319.787,158.500 320.678,157.400 321.006 C 156.300 321.333,152.160 322.501,148.200 323.600 C 144.240 324.700,139.830 325.946,138.400 326.368 C 136.970 326.791,134.990 327.352,134.000 327.615 C 133.010 327.878,131.750 328.231,131.200 328.400 C 130.130 328.729,128.748 329.111,124.000 330.394 C 122.350 330.840,120.460 331.377,119.800 331.587 C 118.763 331.918,113.620 333.358,109.800 334.386 C 109.140 334.564,107.160 335.161,105.400 335.713 C 103.640 336.265,101.660 336.854,101.000 337.022 C 100.166 337.235,100.011 337.378,100.492 337.492 C 100.873 337.582,102.943 337.111,105.092 336.445 C 107.242 335.779,113.860 333.878,119.800 332.220 C 133.619 328.363,133.615 328.364,134.800 328.000 C 135.350 327.831,136.610 327.471,137.600 327.200 C 138.590 326.929,139.850 326.569,140.400 326.400 C 140.950 326.231,142.120 325.906,143.000 325.678 C 143.880 325.449,145.590 324.961,146.800 324.593 C 148.010 324.224,150.350 323.568,152.000 323.134 C 153.650 322.700,155.540 322.193,156.200 322.007 C 157.769 321.566,161.439 320.553,164.200 319.800 C 165.410 319.470,167.390 318.930,168.600 318.600 C 169.810 318.270,171.745 317.745,172.900 317.432 C 174.055 317.120,177.970 316.024,181.600 314.995 C 185.230 313.967,190.041 312.637,192.291 312.039 C 194.541 311.441,196.506 310.828,196.658 310.676 C 197.808 309.525,199.885 310.474,206.200 315.036 C 209.720 317.579,213.860 320.545,215.400 321.628 C 219.602 324.582,222.737 326.818,231.674 333.230 C 236.143 336.437,240.430 339.488,241.200 340.011 C 241.970 340.534,242.690 341.074,242.800 341.212 C 242.910 341.350,244.241 342.308,245.759 343.340 C 248.708 345.347,248.821 345.358,251.775 343.951 C 252.641 343.538,253.498 343.200,253.679 343.200 C 254.066 343.200,256.310 342.211,265.000 338.213 C 268.775 336.476,280.748 330.485,282.900 329.257 C 286.436 327.237,287.111 326.841,289.200 325.556 C 290.410 324.811,291.503 324.064,291.628 323.894 C 291.754 323.724,292.090 324.083,292.375 324.692 C 292.660 325.302,293.052 326.113,293.247 326.495 C 293.441 326.877,293.600 327.464,293.600 327.800 C 293.600 328.136,293.759 328.723,293.953 329.105 C 294.280 329.749,294.635 330.585,295.560 332.900 C 295.757 333.395,296.136 334.430,296.400 335.200 C 296.664 335.970,297.067 337.050,297.294 337.600 C 297.866 338.985,298.188 339.832,299.195 342.600 C 299.675 343.920,300.398 345.810,300.801 346.800 C 301.205 347.790,302.667 351.617,304.051 355.305 C 305.435 358.993,306.755 361.948,306.984 361.872 C 307.269 361.777,307.432 341.571,307.501 297.514 L 307.602 233.295 309.801 231.648 C 311.011 230.741,313.035 229.235,314.300 228.301 C 315.565 227.367,316.690 226.508,316.800 226.394 C 316.910 226.279,318.800 224.842,321.000 223.200 C 323.200 221.558,325.090 220.117,325.200 219.998 C 325.310 219.879,329.000 217.091,333.400 213.804 C 337.800 210.516,341.490 207.721,341.600 207.594 C 341.710 207.466,342.430 206.929,343.200 206.400 C 343.970 205.871,344.690 205.335,344.800 205.208 C 344.910 205.081,346.418 203.903,348.150 202.589 C 357.304 195.648,356.613 196.508,356.032 192.778 C 355.531 189.558,355.007 185.920,354.391 181.400 C 354.152 179.640,353.793 177.570,353.595 176.800 C 353.396 176.030,353.041 174.500,352.806 173.400 C 352.360 171.308,350.090 161.707,348.039 153.232 C 347.377 150.500,346.929 148.115,347.042 147.932 C 347.155 147.750,355.622 147.600,365.857 147.600 C 387.133 147.600,386.786 147.679,379.093 144.599 C 376.317 143.488,373.915 142.449,373.756 142.290 C 373.597 142.130,373.225 142.000,372.929 142.000 C 372.633 142.000,371.538 141.619,370.496 141.153 C 367.649 139.882,366.707 139.494,360.400 136.997 C 357.210 135.734,353.880 134.384,353.000 133.998 C 352.120 133.611,350.950 133.160,350.400 132.995 C 349.850 132.831,348.590 132.341,347.600 131.908 C 346.610 131.475,345.440 130.976,345.000 130.800 C 344.560 130.624,343.347 130.102,342.304 129.640 C 341.262 129.178,340.261 128.800,340.079 128.800 C 339.898 128.800,339.005 128.440,338.094 128.000 C 337.184 127.560,336.278 127.200,336.081 127.200 C 335.884 127.200,335.200 126.945,334.561 126.634 C 333.923 126.323,325.930 123.065,316.800 119.394 C 299.215 112.323,297.803 111.745,296.705 111.166 C 296.323 110.965,295.826 110.800,295.601 110.800 C 295.376 110.800,294.338 110.422,293.296 109.960 C 292.253 109.498,290.995 108.958,290.500 108.760 C 290.005 108.562,289.195 108.238,288.700 108.041 C 288.205 107.843,287.170 107.407,286.400 107.071 C 285.041 106.479,271.815 101.180,269.400 100.260 C 266.631 99.206,265.047 98.161,264.759 97.200 C 264.594 96.650,263.745 93.950,262.873 91.200 C 262.000 88.450,260.529 83.770,259.603 80.800 C 258.677 77.830,257.395 73.780,256.755 71.800 C 256.115 69.820,255.401 67.570,255.169 66.800 C 254.937 66.030,254.597 65.040,254.414 64.600 C 254.231 64.160,253.684 62.450,253.199 60.800 C 252.714 59.150,251.905 56.540,251.401 55.000 C 250.897 53.460,249.732 49.817,248.812 46.905 C 247.892 43.992,246.996 41.521,246.821 41.413 C 243.424 39.314,217.121 35.128,201.300 34.170 C 198.825 34.020,196.800 33.837,196.800 33.763 C 196.800 33.689,197.054 32.857,197.365 31.914 C 197.675 30.971,198.957 26.960,200.213 23.000 C 201.469 19.040,203.294 13.389,204.267 10.441 C 206.687 3.112,206.496 2.970,201.791 8.607 " stroke="none" fill="#d099a2" fill-rule="evenodd"></path></g></svg>